<svg width="189" height="32" viewBox="0 0 189 32" fill="none" xmlns="http://www.w3.org/2000/svg">
<path d="M45.2114 10.571L46.8782 7.51155H35.9164C34.0848 7.51155 32.6033 8.8857 32.5829 10.571H45.2188H45.2114Z" fill="#DF678C"/>
<path d="M44.4985 17.9214V14.862H36.1295H32.5737V17.9214H36.1295H44.4985Z" fill="#DF678C"/>
<path d="M45.2115 22.0383H32.5756C32.6033 23.7236 34.0849 25.0978 35.9091 25.0978H46.8634L45.2115 22.0383Z" fill="#DF678C"/>
<path d="M61.7105 7.51155H65.7478L60.153 16.3084L65.9848 25.1052H61.9476L57.2769 17.8492L52.5989 25.1052H48.5764L54.4082 16.3084L48.8135 7.51155H52.8433L57.2769 14.7435L61.7105 7.51155Z" fill="#DF678C"/>
<path d="M71.8093 25.1052H68.2535V10.6191C68.2535 8.91163 69.7462 7.51155 71.5963 7.51155H76.3855C80.132 7.51155 83.1896 9.78761 83.1896 13.4878V14.1508C83.1896 17.8547 80.132 20.1252 76.3855 20.1252H72.0445L73.9409 17.0677H76.3836C78.1856 17.0677 79.632 16.1417 79.632 14.1508V13.4878C79.632 11.4951 78.1856 10.571 76.3836 10.571H71.8093V25.1052Z" fill="#DF678C"/>
<path d="M88.3806 22.7569L90.277 19.6993H95.0199L92.0086 11.0692L87.1009 25.1052H83.3063L88.4751 10.3802C89.0918 8.62644 90.1585 7.27451 92.0086 7.27451C93.8587 7.27451 94.9236 8.62644 95.5403 10.3802L100.709 25.1052H96.9163L96.0866 22.7569H88.3806Z" fill="#DF678C"/>
<path d="M103.031 10.571H99.5127V7.51155H104.919L103.031 10.571ZM104.269 25.1052V10.6191C104.269 8.91163 105.761 7.51155 107.602 7.51155H112.865V10.571H107.821V25.1052H104.269Z" fill="#DF678C"/>
<path d="M121.24 7.51155H123.61C125.388 7.51155 127.926 8.25233 129.111 9.43203L126.029 11.8044C125.745 11.4302 125.379 11.125 124.961 10.9114C124.542 10.6979 124.08 10.5815 123.61 10.571H121.24C119.573 10.571 118.229 11.4488 118.229 12.5378C118.229 15.2416 129.34 14.1508 129.34 20.0789C129.34 22.8569 126.281 25.1052 122.536 25.1052H120.171C118.319 25.1052 115.667 24.3644 114.43 23.1847L117.49 20.8123C118.082 21.5716 119.197 22.0457 120.168 22.0457H122.54C124.342 22.0457 125.788 21.1679 125.788 20.0789C125.788 17.0436 114.667 18.4122 114.667 12.5378C114.671 9.76538 117.612 7.51155 121.24 7.51155Z" fill="#3D1560"/>
<path d="M140.752 10.0728H144.499L148.432 21.4827L149.784 7.51711H153.577L151.964 22.1698C151.727 24.207 150.186 25.2274 148.693 25.2274C148.093 25.2437 147.502 25.0721 147.004 24.7364C146.506 24.4007 146.126 23.9177 145.915 23.3551L142.619 13.7249L139.324 23.3551C139.114 23.9176 138.733 24.4004 138.235 24.736C137.737 25.0717 137.147 25.2435 136.546 25.2274C135.054 25.2274 133.511 24.2088 133.274 22.1698L131.677 7.51155H135.47L136.822 21.4772L140.752 10.0728Z" fill="#3D1560"/>
<path d="M159.716 22.7569L161.613 19.6993H166.354L163.346 11.0692L158.438 25.1052H154.642L159.811 10.3802C160.427 8.62644 161.494 7.27451 163.346 7.27451C165.198 7.27451 166.263 8.62644 166.88 10.3802L172.05 25.1052H168.25L167.42 22.7569H159.716Z" fill="#3D1560"/>
<path d="M177.567 25.1052H174.011V10.6191C174.011 8.91163 175.504 7.51155 177.345 7.51155H182.143C185.888 7.51155 188.948 9.78761 188.948 13.4878V14.1508C188.948 17.8547 185.888 20.1252 182.143 20.1252H177.804L179.701 17.0677H182.143C183.945 17.0677 185.392 16.1417 185.392 14.1508V13.4878C185.392 11.4951 183.945 10.571 182.143 10.571H177.567V25.1052Z" fill="#3D1560"/>
<path d="M26.9714 0V32" stroke="#DF678C" stroke-width="1.15944" stroke-miterlimit="10"/>
<path style="mix-blend-mode:screen" d="M12.6299 23.4847C10.8743 23.5193 9.11799 23.5532 7.3611 23.5866C6.65444 23.5839 5.94881 23.6409 5.25172 23.7569C4.57709 23.8692 3.92834 24.1026 3.3368 24.4459C2.51702 24.959 1.88198 25.7199 1.52373 26.6182C1.20149 27.359 0.897767 28.1257 0.586638 28.8795C0.586638 28.9035 0.569971 28.9295 0.557007 28.9665L1.28297 28.9498L10.0501 28.7535C10.0761 28.7461 13.893 26.6145 12.6299 23.4847Z" fill="url(#paint0_linear_759_5263)"/>
<path style="mix-blend-mode:screen" d="M12.3984 15.4528C12.4521 15.4528 12.4836 15.4528 12.5169 15.4528C14.1862 15.4219 15.856 15.3904 17.5265 15.3583C18.3667 15.3587 19.2032 15.2466 20.0137 15.025C20.8982 14.7835 21.6883 14.2783 22.2786 13.5767C22.6375 13.1283 22.9278 12.629 23.1398 12.0952L24.012 9.98763H23.9954C23.9635 9.99363 23.9314 9.99796 23.8991 10.0006L15.6653 10.158C14.4985 10.1802 13.3318 10.195 12.1651 10.2339H11.9947C9.95937 12.9637 12.3984 15.4528 12.3984 15.4528Z" fill="url(#paint1_linear_759_5263)"/>
<g style="mix-blend-mode:screen">
<path d="M18.4432 24.494C18.6029 23.9857 18.6762 23.4542 18.6599 22.9217C18.6062 21.7124 18.0599 20.7179 17.2135 19.9104C15.6986 18.4622 14.1393 17.0603 12.5966 15.6398L12.3985 15.4546C12.3985 15.4546 9.95943 12.9637 11.9947 10.2228C11.2798 10.2479 10.5712 10.3668 9.8872 10.5765C9.26924 10.7672 8.69828 11.0856 8.2114 11.5112C7.72452 11.9369 7.33261 12.4601 7.06111 13.0471C6.81676 13.5381 6.62435 14.0532 6.487 14.5842C6.32903 15.1547 6.28933 15.7515 6.37033 16.338C6.53285 17.3337 7.03076 18.2439 7.78152 18.9178C9.38347 20.4271 11.0132 21.9068 12.6318 23.3995L12.7133 23.4773C12.6707 23.4773 12.6466 23.4773 12.6244 23.4773C13.8874 26.6071 10.0705 28.7387 10.0446 28.7535L11.4151 28.722C12.1429 28.7054 12.8707 28.6869 13.5967 28.6443C14.3178 28.6046 15.0242 28.4246 15.6764 28.1146C16.7024 27.6257 17.3913 26.7997 17.8988 25.8126C18.122 25.3915 18.3044 24.95 18.4432 24.494Z" fill="#DF678C"/>
</g>
<g style="mix-blend-mode:screen">
<path d="M0.00326585 9.3524C-0.0212329 8.65324 0.0922933 7.9561 0.337355 7.30084C0.582418 6.64558 0.954211 6.04503 1.43149 5.53353C1.90876 5.02203 2.48216 4.6096 3.11891 4.31982C3.75566 4.03003 4.44327 3.86857 5.14245 3.84467L12.5966 3.58354C12.6211 4.28285 12.5075 4.98013 12.2623 5.63551C12.0171 6.29089 11.6452 6.89152 11.1677 7.40304C10.6902 7.91457 10.1166 8.32696 9.47966 8.61664C8.8427 8.90632 8.15489 9.0676 7.45555 9.09127L0.00326585 9.3524Z" fill="#3D145F"/>
</g>
<g style="mix-blend-mode:screen">
<path d="M0.297703 16.0065C0.273198 15.3074 0.386647 14.6103 0.631571 13.955C0.876496 13.2998 1.2481 12.6992 1.72516 12.1876C2.20221 11.6759 2.77538 11.2633 3.41193 10.9732C4.04848 10.6831 4.73593 10.5213 5.43504 10.4969L12.8818 10.2376C12.9303 11.6484 12.4165 13.0207 11.4535 14.0528C10.4905 15.0849 9.15704 15.6924 7.74628 15.7416L0.297703 16.0065Z" fill="#3D145F"/>
</g>
<g style="mix-blend-mode:screen">
<path d="M0.55881 22.8495C0.534308 22.1505 0.647772 21.4535 0.892719 20.7983C1.13767 20.1432 1.50929 19.5427 1.98637 19.0312C2.46346 18.5198 3.03664 18.1073 3.67317 17.8174C4.30971 17.5275 4.99712 17.3659 5.69614 17.3417L13.1521 17.0806C13.1774 17.7805 13.0643 18.4786 12.8193 19.1347C12.5744 19.7908 12.2024 20.3922 11.7246 20.9043C11.2469 21.4165 10.6728 21.8293 10.0353 22.1193C9.39771 22.4092 8.70922 22.5705 8.00924 22.5939L0.55881 22.8495Z" fill="#3D145F"/>
</g>
<defs>
<linearGradient id="paint0_linear_759_5263" x1="2.4868" y1="24.3217" x2="16.6339" y2="30.8988" gradientUnits="userSpaceOnUse">
<stop offset="0.06" stop-color="#DF678C"/>
<stop offset="1" stop-color="#9E1F63"/>
</linearGradient>
<linearGradient id="paint1_linear_759_5263" x1="2359.21" y1="978.3" x2="1354.59" y2="1660.08" gradientUnits="userSpaceOnUse">
<stop offset="0.06" stop-color="#DF678C"/>
<stop offset="1" stop-color="#9E1F63"/>
</linearGradient>
</defs>
</svg>
